PathFileType	4	(X/Y/Z)	C:\Users\Admin\Desktop\Capture Files\05302019 Reflex Trials\AcheillesTrialStatic_1-Unnamed.trc
DataRate	CameraRate	NumFrames	NumMarkers	Units	OrigDataRate	OrigDataStartFrame	OrigNumFrames
300.00	300.00	      11	0	mm	300.00	283	      1130
Frame#	Time	
		

283	0.940	111.69079	242.81956	383.15417	149.09343	203.82297	236.01010	99.38548	156.10609	304.08667	88.59651	134.80534	368.04224	200.44385	-309.14975	928.14374	145.28444	355.65704	155.14635	-231.67061	209.78813	318.53708	-214.60033	-217.45062	665.89038	288.76505	-317.25595	1019.75800	72.70226	245.45482	246.31842	280.36197	-141.26634	964.22211				124.58061	309.74030	207.69067							91.44840	245.39146	565.37665	113.39665	254.43893	320.49744	
284	0.943	111.69492	242.82224	383.15881	149.06902	203.79561	235.99924	99.40056	156.11769	304.12289				200.46362	-309.17590	928.12592	145.26813	355.65768	155.15446	-231.67026	209.78972	318.52859	-214.62115	-217.45523	665.87878	288.76529	-317.24902	1019.73987	72.70939	245.44508	246.31223	280.33951	-141.27296	964.22449	89.65689	133.55934	368.17654	124.57327	309.74850	207.68959							91.44985	245.38455	565.37665	113.38367	254.43661	320.50549	
285	0.947	111.67625	242.80971	383.15497	149.09024	203.82877	236.00073	98.91064	156.66978	304.03555				200.44148	-309.15109	928.12720	145.25412	355.66135	155.16051	-231.68451	209.79373	318.52554	-214.59096	-217.46187	665.87982	288.72284	-317.23022	1019.77234	72.68896	245.45792	246.31340	280.36499	-141.26892	964.20935	89.68954	133.56622	368.17731	124.58602	309.74249	207.68906							91.43884	245.39755	565.37463	113.38457	254.44095	320.49463	
286	0.950	111.67548	242.82303	383.14758	149.04457	203.81551	235.99585				99.38569	156.13504	304.09491	200.41048	-309.11694	928.12659	145.25230	355.67102	155.15392	-231.68922	209.78374	318.53128	-214.61034	-217.45082	665.88873	288.72482	-317.15952	1019.78564	72.68683	245.44765	246.29858	280.37033	-141.27029	964.21545	89.66759	133.56934	368.17661	124.57913	309.74142	207.68047							91.42618	245.39650	565.37976	113.36381	254.43802	320.49857	
287	0.953	111.66147	242.82213	383.15051	149.02333	203.82039	235.98529				99.36567	156.11325	304.08603	200.42497	-309.12439	928.13562	145.22716	355.65414	155.14444	-231.69098	209.78111	318.52713	-214.58556	-217.46362	665.90173	288.72232	-317.18137	1019.78204	72.68775	245.46301	246.31358	280.36642	-141.26717	964.22345	88.54173	134.80182	368.06393	124.54803	309.75403	207.68501							91.42478	245.39079	565.36670	113.35860	254.44679	320.50266	
288	0.957	111.65672	242.80972	383.14047	149.03293	203.82808	235.97818	89.65707	133.56964	368.19116	99.36175	156.12874	304.09393	200.44099	-309.18686	928.13666	145.23007	355.66452	155.14583	-231.68649	209.76941	318.51587	-214.59343	-217.46568	665.90594	288.72800	-317.26157	1019.79138	72.65976	245.44818	246.31812	280.38675	-141.26781	964.22717				124.53607	309.76233	207.68932							91.42675	245.39696	565.37860	113.36234	254.44334	320.49567	
289	0.960	111.65174	242.82010	383.14844	149.02069	203.83344	235.98811	88.54703	134.80966	368.06412	99.37459	156.12341	304.10226	200.44147	-309.20151	928.11713	145.22946	355.65952	155.14375	-231.68384	209.76283	318.50589	-214.61472	-217.46770	665.90222	288.72699	-317.24405	1019.78387	72.66067	245.46289	246.31198	280.36707	-141.27426	964.22321				124.52959	309.76816	207.69707							91.41819	245.40407	565.37360	113.34595	254.46065	320.49478	
290	0.963	111.65029	242.83257	383.14209	149.00871	203.82314	235.98033	88.53828	134.81519	368.05795	99.33971	156.13313	304.09412	200.40848	-309.16641	928.11823	145.21120	355.67377	155.14456	-231.69302	209.75931	318.51575	-214.58781	-217.46542	665.90314	288.69498	-317.22519	1019.77478	72.67361	245.44734	246.28082	280.37146	-141.28468	964.20789				124.52282	309.75052	207.68448							91.40291	245.40184	565.36420	113.35127	254.45091	320.48886	
291	0.967	111.63369	242.82982	383.13962	148.99939	203.84875	235.99640	88.52027	134.82597	368.05804	99.36025	156.12877	304.10547	200.41010	-309.15631	928.12122	145.19115	355.67422	155.15073	-231.70094	209.76051	318.50934	-214.58310	-217.45027	665.89722	288.70691	-317.24869	1019.76300	72.64601	245.47189	246.31523	280.37814	-141.28709	964.22101				124.51099	309.76865	207.67903							91.40961	245.41908	565.36469	113.31896	254.44919	320.48550	
292	0.970	111.61525	242.85229	383.13889	148.96539	203.83917	235.97510				98.88194	156.66418	304.04852	200.40558	-309.14612	928.14026	145.19371	355.67490	155.13747	-231.69331	209.75735	318.51636	-214.61531	-217.47069	665.89734	288.71671	-317.32297	1019.76276	72.64416	245.47273	246.30234	280.35724	-141.30063	964.21332	89.64056	133.58049	368.18796	124.50601	309.77316	207.68275							91.38388	245.39731	565.36456	113.33700	254.45035	320.49078	
293	0.973	111.62230	242.84625	383.13361	148.96184	203.81006	235.95335				98.86956	156.67329	304.06256	200.39764	-309.14093	928.13666	145.18365	355.67725	155.14526	-231.70229	209.74684	318.51025	-214.58557	-217.45132	665.90289	288.70584	-317.26495	1019.74933	72.61879	245.47157	246.30856	280.35703	-141.31349	964.22180	88.53865	134.82643	368.05066	124.49976	309.76291	207.69208							91.39161	245.40147	565.36700	113.30640	254.45602	320.47507	
